<svg xmlns="http://www.w3.org/2000/svg" width="70" height="66" viewBox="0 0 70 66">
    <g id="Card" transform="translate(-436.5 -96.989)">
        <g id="Layer_2" data-name="Layer 2" transform="translate(436.5 97.384)">
            <g id="invisible_box" data-name="invisible box">
                <rect id="Rectangle_2" data-name="Rectangle 2" width="70" height="66" transform="translate(0 -0.395)" fill="none"/>
            </g>
            <g id="Health_Icons" data-name="Health Icons" transform="translate(2.014 1.999)">
                <path id="Tracé_1" data-name="Tracé 1" d="M57.543,23H50.186L39.677,4.521A4.216,4.216,0,0,0,35.623,2H23.012a4.608,4.608,0,0,0-3.753,1.82,3.7,3.7,0,0,0-.3,4.06L26.015,23h-5.1l-1.8-3.22h0a5.178,5.178,0,0,0-4.354-2.38H6.8a5.367,5.367,0,0,0-4.2,2.1,4.081,4.081,0,0,0-.15,3.92l5.1,9.381-5.1,9.381a4.081,4.081,0,0,0,.15,3.92,5.367,5.367,0,0,0,4.2,2.1h7.957a5.2,5.2,0,0,0,4.354-2.24l1.8-3.36h5.1L18.958,57.724a3.7,3.7,0,0,0,.3,4.06,4.608,4.608,0,0,0,3.753,1.82H35.623a4.216,4.216,0,0,0,4.054-2.52L50.186,42.6h7.357c5.8,0,10.509-4.388,10.509-9.8S63.347,23,57.543,23Zm0,14H46.583L34.722,58H25.264l9.909-21H17.157l-3,5.6H8.9l5.255-9.8L8.9,23h5.255l3,5.6H35.173l-9.909-21h9.458l11.861,21h10.96a4.211,4.211,0,1,1,0,8.4Z" transform="translate(-2.014 -1.999)" fill="#fb7800"/>
            </g>
        </g>
    </g>
</svg>
