<svg id="Layer_2" data-name="Layer 2" xmlns="http://www.w3.org/2000/svg" width="48" height="48" viewBox="0 0 48 48">
    <g id="invisible_box" data-name="invisible box">
        <rect id="Rectangle_21" data-name="Rectangle 21" width="48" height="48" fill="none"/>
    </g>
    <g id="Icons">
        <g id="Groupe_12" data-name="Groupe 12">
            <path id="Tracé_31" data-name="Tracé 31" d="M24.3,6A11.2,11.2,0,0,0,16,9.3a11,11,0,0,0-3.5,8.2,2.5,2.5,0,1,0,5,0,6.5,6.5,0,0,1,2-4.7A6.2,6.2,0,0,1,24.2,11a6.5,6.5,0,0,1,1,12.9,4.4,4.4,0,0,0-3.7,4.4v3.2a2.5,2.5,0,0,0,5,0V28.7a11.6,11.6,0,0,0,9-11.5A11.7,11.7,0,0,0,24.3,6Z" fill="#8ea2ff"/>
            <circle id="Ellipse_3" data-name="Ellipse 3" cx="2.5" cy="2.5" r="2.5" transform="translate(21.5 37)" fill="#8ea2ff"/>
        </g>
    </g>
</svg>
