<svg id="Layer_2" data-name="Layer 2" xmlns="http://www.w3.org/2000/svg" width="48" height="48" viewBox="0 0 48 48">
    <g id="invisible_box" data-name="invisible box">
        <rect id="Rectangle_58" data-name="Rectangle 58" width="48" height="48" fill="none"/>
    </g>
    <g id="icons_Q2" data-name="icons Q2">
        <g id="Groupe_35" data-name="Groupe 35">
            <circle id="Ellipse_18" data-name="Ellipse 18" cx="4" cy="4" r="4" transform="translate(17 15)" fill="#39b7fe"/>
            <path id="Tracé_111" data-name="Tracé 111" d="M21.5,5A14,14,0,0,0,7,19a2,2,0,0,0,4,0,9.9,9.9,0,0,1,3.1-7.2A9.7,9.7,0,0,1,21.4,9,10.2,10.2,0,0,1,31,18.6a9.9,9.9,0,0,1-6.4,9.7A9.1,9.1,0,0,0,19,36.7,4.2,4.2,0,0,1,15.1,41a4.4,4.4,0,0,1-2.9-1.1A4,4,0,0,1,11,37a2,2,0,0,0-4,0,8,8,0,0,0,2.4,5.7A7.9,7.9,0,0,0,15,45h.2A8.2,8.2,0,0,0,23,36.7a4.8,4.8,0,0,1,3.1-4.6A14.04,14.04,0,0,0,21.5,5Z" fill="#39b7fe"/>
            <path id="Tracé_112" data-name="Tracé 112" d="M36.4,3.6a1.9,1.9,0,0,0-2.8,0,1.9,1.9,0,0,0,0,2.8,17.4,17.4,0,0,1,0,25.2,1.981,1.981,0,1,0,2.8,2.8,21.3,21.3,0,0,0,0-30.8Z" fill="#39b7fe"/>
        </g>
    </g>
</svg>