
<svg id="Layer_2" data-name="Layer 2" xmlns="http://www.w3.org/2000/svg" width="48" height="48" viewBox="0 0 48 48">
    <g id="invisible_box" data-name="invisible box">
        <rect id="Rectangle_60" data-name="Rectangle 60" width="48" height="48" fill="none"/>
        <rect id="Rectangle_61" data-name="Rectangle 61" width="48" height="48" fill="none"/>
        <rect id="Rectangle_62" data-name="Rectangle 62" width="48" height="48" fill="none"/>
    </g>
    <g id="icons_Q2" data-name="icons Q2">
        <path id="Tracé_115" data-name="Tracé 115" d="M43.9,15H34V8a2,2,0,0,0-2.1-2H4.1A2,2,0,0,0,2,8V36a1,1,0,0,0,1,1,1.3,1.3,0,0,0,.8-.3L13,28h1v7a2,2,0,0,0,2.1,2H35l9.2,8.7a1.3,1.3,0,0,0,.8.3,1,1,0,0,0,1-1V17a2,2,0,0,0-2.1-2ZM11.4,24l-1.1,1.1L6,29.1V10H30V24ZM42,38.1l-4.3-4L36.6,33H18V28H31.9A2,2,0,0,0,34,26V19h8Z" fill="#39b7fe"/>
    </g>
</svg>
