<?xml version="1.0" encoding="UTF-8"?>
<!DOCTYPE svg PUBLIC "-//W3C//DTD SVG 1.1//EN" "http://www.w3.org/Graphics/SVG/1.1/DTD/svg11.dtd">
<svg xmlns="http://www.w3.org/2000/svg" version="1.1" width="100px" height="100px" style="shape-rendering:geometricPrecision; text-rendering:geometricPrecision; image-rendering:optimizeQuality; fill-rule:evenodd; clip-rule:evenodd" xmlns:xlink="http://www.w3.org/1999/xlink">
<g><path style="opacity:1" fill="#0070bc" d="M 47.5,8.5 C 69.7371,9.24925 83.9037,20.2493 90,41.5C 92.7119,66.7817 81.8786,82.9483 57.5,90C 32.6812,92.1666 16.8478,81.3333 10,57.5C 8.04563,29.9687 20.5456,13.6354 47.5,8.5 Z M 46.5,17.5 C 72.3717,19.1975 83.8717,32.8642 81,58.5C 74.3853,76.3975 61.552,83.8975 42.5,81C 24.3351,74.5079 16.5018,61.6745 19,42.5C 22.9764,28.3529 32.1431,20.0196 46.5,17.5 Z"/></g>
<g><path style="opacity:1" fill="#0070bc" d="M 48.5,24.5 C 69.5814,23.7456 78.4148,33.7456 75,54.5C 73.2723,58.6426 70.6056,61.9759 67,64.5C 66.5034,62.1902 66.3367,59.8568 66.5,57.5C 61.553,56.8484 57.2197,58.0151 53.5,61C 51.8659,61.4935 50.1992,61.6602 48.5,61.5C 48.3337,54.825 48.5004,48.1583 49,41.5C 49.6667,40.8333 50.3333,40.1667 51,39.5C 51.4986,35.8484 51.6653,32.1817 51.5,28.5C 48.1501,28.665 44.8168,28.4983 41.5,28C 43.9252,26.7874 46.2585,25.6207 48.5,24.5 Z"/></g>
<g><path style="opacity:1" fill="#0070bc" d="M 31.5,31.5 C 37.1667,31.5 42.8333,31.5 48.5,31.5C 48.9358,34.3641 48.1025,36.6975 46,38.5C 45.5002,47.1603 45.3336,55.8269 45.5,64.5C 50.461,65.3134 54.7944,64.1467 58.5,61C 59.7932,60.51 61.1266,60.3433 62.5,60.5C 62.5,64.5 62.5,68.5 62.5,72.5C 52.1667,72.5 41.8333,72.5 31.5,72.5C 30.9852,68.2041 32.1518,64.5375 35,61.5C 35.6667,54.5 35.6667,47.5 35,40.5C 34.6322,39.09 33.7989,38.09 32.5,37.5C 31.5344,35.604 31.2011,33.604 31.5,31.5 Z"/></g>
</svg>
