<svg id="Layer_2" data-name="Layer 2" xmlns="http://www.w3.org/2000/svg" width="51" height="51" viewBox="0 0 51 51">
  <g id="invisible_box" data-name="invisible box">
    <rect id="Rectangle_20" data-name="Rectangle 20" width="51" height="51" fill="none"/>
  </g>
  <g id="icons_Q2" data-name="icons Q2" transform="translate(1.999 2.999)">
    <g id="Groupe_9" data-name="Groupe 9">
      <path id="Tracé_29" data-name="Tracé 29" d="M12.714,30.926V19.671a8.426,8.426,0,0,0,6.107-6.052H30.177A8.56,8.56,0,1,0,39.555,3.068a8.568,8.568,0,0,0-9.379,6.3H18.82A8.557,8.557,0,0,0,10.571,3,8.486,8.486,0,0,0,8.428,19.671V30.926a8.506,8.506,0,1,0,10.645,9.3,8.5,8.5,0,0,0-6.36-9.3ZM38.426,7.247a4.248,4.248,0,1,1-4.285,4.247A4.267,4.267,0,0,1,38.426,7.247ZM6.285,11.495a4.286,4.286,0,1,1,4.285,4.247A4.267,4.267,0,0,1,6.285,11.495ZM10.571,43.35A4.248,4.248,0,1,1,14.856,39.1,4.267,4.267,0,0,1,10.571,43.35Z" transform="translate(-1.999 -2.999)" fill="#ffc56e"/>
      <path id="Tracé_30" data-name="Tracé 30" d="M38,29.3V25a2,2,0,0,0-4,0v4.3A7.9,7.9,0,0,0,28.3,35H24a2,2,0,0,0,0,4h4.3A8,8,0,1,0,38,29.3ZM36,41a4,4,0,1,1,4-4A4,4,0,0,1,36,41Z" transform="translate(1.001 -0.399)" fill="#ffc56e"/>
    </g>
  </g>
</svg>
