<svg id="Layer_2" data-name="Layer 2" xmlns="http://www.w3.org/2000/svg" width="54" height="57" viewBox="0 0 54 57">
    <g id="invisible_box" data-name="invisible box">
        <rect id="Rectangle_9" data-name="Rectangle 9" width="54" height="57" fill="none"/>
    </g>
    <g id="icons_Q2" data-name="icons Q2" transform="translate(6 2)">
        <path id="Tracé_15" data-name="Tracé 15" d="M29.837,6.808V4.4A2.394,2.394,0,0,0,27.453,2H6V52.48a2.394,2.394,0,0,0,2.384,2.4h0a2.394,2.394,0,0,0,2.384-2.4V30.846h14.3v2.4a2.394,2.394,0,0,0,2.384,2.4H48.906V6.808Zm14.3,24.038h-14.3v-2.4a2.394,2.394,0,0,0-2.384-2.4H10.767V6.808h14.3v2.4a2.394,2.394,0,0,0,2.384,2.4H44.139Z" transform="translate(-6 -2)" fill="#ffc56e"/>
    </g>
</svg>
