<svg id="Layer_2" data-name="Layer 2" xmlns="http://www.w3.org/2000/svg" width="54" height="53" viewBox="0 0 54 53">
    <g id="invisible_box" data-name="invisible box">
        <rect id="Rectangle_19" data-name="Rectangle 19" width="54" height="53" fill="none"/>
    </g>
    <g id="icons_Q2" data-name="icons Q2" transform="translate(4 4)">
        <path id="Tracé_26" data-name="Tracé 26" d="M47.47,8H24.355A7.156,7.156,0,0,0,17.8,4a6.9,6.9,0,0,0-6.44,4H6.53a2.641,2.641,0,0,0-1.742.544A2,2,0,0,0,4,10a2,2,0,0,0,.788,1.456A2.641,2.641,0,0,0,6.53,12h4.83a6.9,6.9,0,0,0,6.44,4,7.156,7.156,0,0,0,6.555-4H47.47a2.641,2.641,0,0,0,1.742-.544A2,2,0,0,0,50,10a2,2,0,0,0-.788-1.456A2.641,2.641,0,0,0,47.47,8ZM17.8,12a2.166,2.166,0,0,1-2.3-2,2.166,2.166,0,0,1,2.3-2,2.166,2.166,0,0,1,2.3,2A2.166,2.166,0,0,1,17.8,12Z" transform="translate(-4 -4)" fill="#ffc56e"/>
        <path id="Tracé_27" data-name="Tracé 27" d="M47.5,22H42.776a7.166,7.166,0,0,0-6.564-4,6.912,6.912,0,0,0-6.448,4H6.5a2.168,2.168,0,0,0-2.3,2,2.168,2.168,0,0,0,2.3,2H29.764a6.912,6.912,0,0,0,6.448,4,7.166,7.166,0,0,0,6.564-4H47.5a2.168,2.168,0,0,0,2.3-2A2.168,2.168,0,0,0,47.5,22ZM36.212,26a2.168,2.168,0,0,1-2.3-2,2.326,2.326,0,0,1,4.606,0A2.168,2.168,0,0,1,36.212,26Z" transform="translate(-4 -1.68)" fill="#ffc56e"/>
        <path id="Tracé_28" data-name="Tracé 28" d="M47.5,36H27.806a7.166,7.166,0,0,0-6.564-4,6.912,6.912,0,0,0-6.448,4H6.5a2.02,2.02,0,1,0,0,4h8.291a6.912,6.912,0,0,0,6.448,4,7.166,7.166,0,0,0,6.564-4H47.5a2.02,2.02,0,1,0,0-4ZM21.242,40a2.02,2.02,0,1,1,0-4,2.02,2.02,0,1,1,0,4Z" transform="translate(-4 0.639)" fill="#ffc56e"/>
    </g>
</svg>
