<svg id="Layer_2" data-name="Layer 2" xmlns="http://www.w3.org/2000/svg" width="48" height="48" viewBox="0 0 48 48">
    <g id="invisible_box" data-name="invisible box">
        <rect id="Rectangle_45" data-name="Rectangle 45" width="48" height="48" fill="none"/>
    </g>
    <g id="icons_Q2" data-name="icons Q2">
        <g id="Groupe_24" data-name="Groupe 24">
            <path id="Tracé_79" data-name="Tracé 79" d="M44,22H39.9A16.1,16.1,0,0,0,26,8.1h0V4a2,2,0,0,0-4,0V8h0A16.1,16.1,0,0,0,8.1,22H4a2,2,0,0,0,0,4H8.1A16.1,16.1,0,0,0,22,39.9h0v4a2,2,0,0,0,4,0V40h0A16.1,16.1,0,0,0,39.9,26H44a2,2,0,0,0,0-4ZM24,36A12,12,0,1,1,36,24,12,12,0,0,1,24,36Z" fill="#dbd290"/>
            <circle id="Ellipse_9" data-name="Ellipse 9" cx="7" cy="7" r="7" transform="translate(17 17)" fill="#dbd290"/>
        </g>
    </g>
</svg>
