<svg id="Layer_2" data-name="Layer 2" xmlns="http://www.w3.org/2000/svg" width="48" height="48" viewBox="0 0 48 48">
    <g id="invisible_box" data-name="invisible box">
        <rect id="Rectangle_47" data-name="Rectangle 47" width="48" height="48" fill="none"/>
    </g>
    <g id="Layer_6" data-name="Layer 6">
        <g id="Groupe_26" data-name="Groupe 26">
            <path id="Tracé_85" data-name="Tracé 85" d="M34,6h-.6l-30,8.8a2,2,0,0,0-1.4,2v9a2.2,2.2,0,0,0,1.4,2l4.7,1.3L9.7,39.4A2.9,2.9,0,0,0,12.6,42h4.5a3.2,3.2,0,0,0,2.2-1,3.3,3.3,0,0,0,.6-2.6l-1.1-6.1,14.6,4.3H34a2,2,0,0,0,2-2V8A2,2,0,0,0,34,6ZM15.8,38H13.5l-1.2-7.6,2.1.6ZM32,32,6,24.3v-6l26-7.6Z" fill="#dbd290"/>
            <path id="Tracé_86" data-name="Tracé 86" d="M40,15.3a1.5,1.5,0,0,0,.9-.2l4-2a2.012,2.012,0,1,0-1.8-3.6l-4,2a2,2,0,0,0-.9,2.7A2.1,2.1,0,0,0,40,15.3Z" fill="#dbd290"/>
            <path id="Tracé_87" data-name="Tracé 87" d="M44.9,29.6l-4-2a2.1,2.1,0,0,0-2.7.8,2,2,0,0,0,.9,2.7l4,2a1.5,1.5,0,0,0,.9.2,2.1,2.1,0,0,0,1.8-1.1,1.9,1.9,0,0,0-.9-2.6Z" fill="#dbd290"/>
            <path id="Tracé_88" data-name="Tracé 88" d="M40,23.3h4a2,2,0,0,0,0-4H40a2,2,0,0,0,0,4Z" fill="#dbd290"/>
        </g>
    </g>
</svg>
