<svg id="Layer_2" data-name="Layer 2" xmlns="http://www.w3.org/2000/svg" width="48" height="48" viewBox="0 0 48 48">
    <g id="invisible_box" data-name="invisible box">
        <rect id="Rectangle_48" data-name="Rectangle 48" width="48" height="48" fill="none"/>
    </g>
    <g id="Layer_6" data-name="Layer 6">
        <g id="Groupe_27" data-name="Groupe 27">
            <path id="Tracé_89" data-name="Tracé 89" d="M18.4,13.8A5.9,5.9,0,0,1,23,12.1a7.6,7.6,0,0,1,5.2,2.2c2.9,2.8,3.4,7.2,1,9.7a2.1,2.1,0,0,0,0,2.9,2.4,2.4,0,0,0,1.4.5,1.8,1.8,0,0,0,1.4-.6c3.2-3.3,3.5-8.2,1.3-12.3H34a6.1,6.1,0,0,0,4.5-1.9,6.3,6.3,0,0,0-.2-8.9A6.5,6.5,0,0,0,34,2a6.6,6.6,0,0,0-4.6,1.9,6.3,6.3,0,0,0-1.6,5.3,11.2,11.2,0,0,0-4.7-1.1,9.5,9.5,0,0,0-7.6,3,2,2,0,1,0,2.9,2.7ZM32.3,6.7A2.4,2.4,0,0,1,34,6a2.234,2.234,0,0,1,1.6,3.8,1.9,1.9,0,0,1-1.6.7,2.3,2.3,0,0,1-1.6-.6,2.2,2.2,0,0,1-.1-3.2Z" fill="#dbd290"/>
            <path id="Tracé_90" data-name="Tracé 90" d="M21.4,38.4C18,37.5,16,33.6,17,29.7s4.5-6.6,7.9-5.7a2,2,0,0,0,2.4-1.5,1.9,1.9,0,0,0-1.4-2.4,10.4,10.4,0,0,0-11.3,5.1,6.3,6.3,0,0,0-4.3-3.6l-1.4-.2a6.3,6.3,0,0,0-6.1,4.8,6.2,6.2,0,0,0,4.6,7.6l1.5.2a6.2,6.2,0,0,0,3.9-1.4,10.5,10.5,0,0,0,7.7,9.7h.4a2,2,0,0,0,2-1.5,1.9,1.9,0,0,0-1.5-2.4ZM11.1,28.2A2.3,2.3,0,0,1,8.9,30H8.3a2.282,2.282,0,0,1,.6-4.5h.5a2.1,2.1,0,0,1,1.4,1A2.5,2.5,0,0,1,11.1,28.2Z" fill="#dbd290"/>
            <path id="Tracé_91" data-name="Tracé 91" d="M40.5,33.9a11.9,11.9,0,0,0,3.3-3.4A9.8,9.8,0,0,0,45,22.4a1.979,1.979,0,1,0-3.8,1.1,5.6,5.6,0,0,1-.8,4.8,8.2,8.2,0,0,1-4.5,3.4C32,32.9,28,31,27,27.7a2.026,2.026,0,1,0-3.9,1.1A10.5,10.5,0,0,0,33.2,36a6.3,6.3,0,0,0,5,10,5.7,5.7,0,0,0,1.8-.3,6.3,6.3,0,0,0,.5-11.8Zm-1.6,8h-.7A2.4,2.4,0,0,1,36,40.4a2.5,2.5,0,0,1,1.6-2.9h.6a2.3,2.3,0,0,1,2.2,1.7,2.2,2.2,0,0,1-1.5,2.7Z" fill="#dbd290"/>
        </g>
    </g>
</svg>
