<svg id="Layer_2" data-name="Layer 2" xmlns="http://www.w3.org/2000/svg" width="48" height="48" viewBox="0 0 48 48">
    <g id="invisible_box" data-name="invisible box">
        <rect id="Rectangle_49" data-name="Rectangle 49" width="48" height="48" fill="none"/>
    </g>
    <g id="Q3_icons" data-name="Q3 icons">
        <path id="Tracé_92" data-name="Tracé 92" d="M46,25,38,5.7h0A38.3,38.3,0,0,0,24,3,38.3,38.3,0,0,0,10,5.7h0L2,25H2v2a8,8,0,0,0,16,0V25h0L11.6,10l.3-.8A34.3,34.3,0,0,1,22,7.1V41H15a2,2,0,0,0,0,4H33a2,2,0,0,0,0-4H26V7.1A34.3,34.3,0,0,1,36.1,9.2l.3.8L30,25h0v2a8,8,0,0,0,16,0ZM10,31a4,4,0,0,1-3.5-2h7A4,4,0,0,1,10,31Zm4.2-6h-9L10,14.3ZM38,14.3,42.2,25h-9ZM38,31a4,4,0,0,1-3.5-2h7A4,4,0,0,1,38,31Z" fill="#9e8066"/>
    </g>
</svg>
