<svg id="Layer_2" data-name="Layer 2" xmlns="http://www.w3.org/2000/svg" width="65" height="61" viewBox="0 0 65 61">
    <g id="invisible_box" data-name="invisible box">
        <rect id="Rectangle_10" data-name="Rectangle 10" width="65" height="61" fill="none"/>
    </g>
    <g id="icons_Q2" data-name="icons Q2" transform="translate(2.977 3)">
        <path id="Tracé_16" data-name="Tracé 16" d="M61.006,12.185a4.794,4.794,0,0,0-3.23-1.312h-9.83A2.721,2.721,0,0,0,45.138,13.5h0a2.721,2.721,0,0,0,2.809,2.624h8.145l-3.23,18.37H17.895l-2.247-18.37h9.83A2.721,2.721,0,0,0,28.286,13.5h0a2.721,2.721,0,0,0-2.809-2.624H14.946l-.562-4.461A4.132,4.132,0,0,0,10.171,3H5.958A2.909,2.909,0,0,0,3.009,5.231a2.507,2.507,0,0,0,.657,2.116,2.9,2.9,0,0,0,2.151.9H8.907l4.494,35.3a7.559,7.559,0,0,0-3.932,8.266,8.287,8.287,0,0,0,6.46,6.167,8.823,8.823,0,0,0,9.83-5.117H40.644a8.539,8.539,0,0,0,9.817,5.051,7.941,7.941,0,0,0,6.5-8.528,8.234,8.234,0,0,0-8.316-7.02,8.7,8.7,0,0,0-8,5.248H25.759A8.337,8.337,0,0,0,18.878,42.5L18.6,39.74H54.125A4.12,4.12,0,0,0,58.2,36.328L61.989,15.6a4.5,4.5,0,0,0-.983-3.412ZM48.649,47.612a2.63,2.63,0,1,1-2.809,2.624A2.721,2.721,0,0,1,48.649,47.612ZM20.563,50.237a2.721,2.721,0,0,1-2.809,2.624,2.63,2.63,0,1,1,0-5.248A2.721,2.721,0,0,1,20.563,50.237Z" transform="translate(-2.977 -3)" fill="#ded1b0"/>
        <path id="Tracé_17" data-name="Tracé 17" d="M20.4,16.8a2.1,2.1,0,0,0,.2,2.7l5,4.9a1.9,1.9,0,0,0,2.8,0l5-4.9a2.1,2.1,0,0,0,.2-2.7,1.9,1.9,0,0,0-3-.2L29,18.2V9a2,2,0,0,0-4,0v9.2l-1.6-1.6a1.9,1.9,0,0,0-3,.2Z" transform="translate(7.34 -3)" fill="#ded1b0"/>
    </g>
</svg>
