<svg id="Layer_2" data-name="Layer 2" xmlns="http://www.w3.org/2000/svg" width="65" height="66" viewBox="0 0 65 66">
    <g id="invisible_box" data-name="invisible box">
        <rect id="Rectangle_9" data-name="Rectangle 9" width="65" height="66" fill="none"/>
    </g>
    <g id="icons_Q2" data-name="icons Q2" transform="translate(6 2)">
        <path id="Tracé_15" data-name="Tracé 15" d="M35.948,7.581V4.791A2.9,2.9,0,0,0,32.953,2H6V60.6A2.9,2.9,0,0,0,8.995,63.4h0A2.9,2.9,0,0,0,11.99,60.6V35.488H29.958v2.791a2.9,2.9,0,0,0,2.995,2.791H59.906V7.581ZM53.917,35.488H35.948V32.7a2.9,2.9,0,0,0-2.995-2.791H11.99V7.581H29.958v2.791a2.9,2.9,0,0,0,2.995,2.791H53.917Z" transform="translate(-6 -2)" fill="#ded1b0"/>
    </g>
</svg>
