<svg id="Layer_2" data-name="Layer 2" xmlns="http://www.w3.org/2000/svg" width="56" height="61" viewBox="0 0 56 61">
    <g id="invisible_box" data-name="invisible box">
        <rect id="Rectangle_14" data-name="Rectangle 14" width="56" height="61" fill="none"/>
    </g>
    <g id="icons_Q2" data-name="icons Q2" transform="translate(6 2)">
        <path id="Tracé_25" data-name="Tracé 25" d="M47.429,53.813H44.992V44.1a10.58,10.58,0,0,0-2.8-7.383L36.219,30.5l5.971-6.218a10.58,10.58,0,0,0,2.8-7.383V7.181h2.437a2.517,2.517,0,0,0,2.437-2.591A2.517,2.517,0,0,0,47.429,2H8.437A2.517,2.517,0,0,0,6,4.591,2.517,2.517,0,0,0,8.437,7.181h2.437V16.9a10.58,10.58,0,0,0,2.8,7.383L19.647,30.5l-5.971,6.218a10.58,10.58,0,0,0-2.8,7.383v9.715H8.437a2.6,2.6,0,0,0,0,5.181H47.429a2.6,2.6,0,0,0,0-5.181ZM17.21,40.471l7.555-8.161a2.568,2.568,0,0,0,0-3.627L17.21,20.523A4.806,4.806,0,0,1,15.748,16.9V7.181h24.37V16.9a4.806,4.806,0,0,1-1.462,3.627L31.1,28.684a2.568,2.568,0,0,0,0,3.627l7.555,8.161A4.806,4.806,0,0,1,40.118,44.1v8.161L31.345,42.8a4.559,4.559,0,0,0-6.824,0l-8.773,9.456V44.1A4.806,4.806,0,0,1,17.21,40.471ZM34.756,53.813H21.109l6.824-7.383Z" transform="translate(-6 -2)" fill="#ded1b0"/>
    </g>
</svg>
