<svg id="Layer_2" data-name="Layer 2" xmlns="http://www.w3.org/2000/svg" width="74.365" height="76.306" viewBox="0 0 74.365 76.306">
    <g id="invisible_box" data-name="invisible box">
        <path id="Rectangle_8" data-name="Rectangle 8" d="M0,0,74.365,6.437V76.306L0,71.619Z" fill="none"/>
    </g>
    <g id="Layer_7" data-name="Layer 7" transform="translate(3.015 9.97)">
        <g id="Groupe_6" data-name="Groupe 6">
            <path id="Tracé_12" data-name="Tracé 12" d="M65.429,4.454,3.181.217A3.167,3.167,0,0,0,1.944.373,2.921,2.921,0,0,0,.932.962a2.792,2.792,0,0,0-.682.929A2.846,2.846,0,0,0,0,3.069,3.084,3.084,0,0,0,.25,4.28,3.365,3.365,0,0,0,.932,5.3a3.5,3.5,0,0,0,1.011.724,3.411,3.411,0,0,0,1.237.323L65.429,10.46a2.981,2.981,0,0,0,1.186-.158,2.794,2.794,0,0,0,.968-.579,2.738,2.738,0,0,0,.652-.91,2.84,2.84,0,0,0,.239-1.152,3.071,3.071,0,0,0-.239-1.184,3.294,3.294,0,0,0-.652-1,3.356,3.356,0,0,0-.968-.709A3.218,3.218,0,0,0,65.429,4.454Z" transform="translate(0 46.495)" fill="#ded1b0"/>
            <path id="Tracé_13" data-name="Tracé 13" d="M2.932,28.419,20.4,29.644A2.871,2.871,0,0,0,21.53,29.5a2.646,2.646,0,0,0,.919-.536,2.538,2.538,0,0,0,.619-.846,2.6,2.6,0,0,0,.227-1.074V4.651a2.845,2.845,0,0,0-.227-1.108,3.123,3.123,0,0,0-.619-.939,3.241,3.241,0,0,0-.919-.673,3.127,3.127,0,0,0-1.126-.31L2.932.233A2.914,2.914,0,0,0,1.791.364a2.654,2.654,0,0,0-.932.53,2.526,2.526,0,0,0-.629.847A2.593,2.593,0,0,0,0,2.821V25.392a2.836,2.836,0,0,0,.231,1.114,3.111,3.111,0,0,0,.629.941,3.245,3.245,0,0,0,.932.67A3.16,3.16,0,0,0,2.932,28.419ZM5.858,6.1,17.506,7V23.831L5.858,22.993Z" transform="translate(39.411 14.906)" fill="#ded1b0"/>
            <path id="Tracé_14" data-name="Tracé 14" d="M3,43.087l17.861,1.24a2.782,2.782,0,0,0,1.151-.159,2.691,2.691,0,0,0,.94-.586,2.772,2.772,0,0,0,.633-.922,2.984,2.984,0,0,0,.232-1.167V5.028a3.252,3.252,0,0,0-.232-1.2,3.411,3.411,0,0,0-.633-1.019,3.328,3.328,0,0,0-.94-.73,3.052,3.052,0,0,0-1.151-.335L3,.25A2.818,2.818,0,0,0,1.831.394,2.681,2.681,0,0,0,.879.97a2.74,2.74,0,0,0-.643.92A2.965,2.965,0,0,0,0,3.063V39.816a3.233,3.233,0,0,0,.236,1.209,3.376,3.376,0,0,0,.643,1.018,3.309,3.309,0,0,0,.953.722A3.073,3.073,0,0,0,3,43.087ZM5.989,6.614,17.9,7.584V38.032l-11.907-.85Z" transform="translate(6.013)" fill="#ded1b0"/>
        </g>
    </g>
</svg>

