<svg id="Layer_2" data-name="Layer 2" xmlns="http://www.w3.org/2000/svg" width="48" height="48" viewBox="0 0 48 48">
    <g id="invisible_box" data-name="invisible box">
        <rect id="Rectangle_32" data-name="Rectangle 32" width="48" height="48" fill="none"/>
    </g>
    <g id="icons_Q2" data-name="icons Q2">
        <g id="Groupe_20" data-name="Groupe 20">
            <path id="Tracé_57" data-name="Tracé 57" d="M5.7,2A2,2,0,0,1,8,4V8.9A22,22,0,0,1,46,24h0a2,2,0,0,1-4,0h0A18,18,0,0,0,10.6,12h5.3A2.1,2.1,0,0,1,18,13.7,2,2,0,0,1,16,16H6a2,2,0,0,1-2-2V4.1A2.1,2.1,0,0,1,5.7,2Z" fill="#f6602b"/>
            <path id="Tracé_58" data-name="Tracé 58" d="M24,42h0a2,2,0,1,1-2,2A2,2,0,0,1,24,42Z" fill="#f6602b"/>
            <path id="Tracé_59" data-name="Tracé 59" d="M33,39.6h0A1.973,1.973,0,1,1,35,43a2,2,0,0,1-2-3.4Z" fill="#f6602b"/>
            <path id="Tracé_60" data-name="Tracé 60" d="M39.6,33a1.9,1.9,0,0,1,2.7-.7,2,2,0,0,1,.8,2.7,2.1,2.1,0,0,1-2.8.7,1.9,1.9,0,0,1-.7-2.7Z" fill="#f6602b"/>
            <path id="Tracé_61" data-name="Tracé 61" d="M5.7,32.3a1.9,1.9,0,0,1,2.7.7h0a1.9,1.9,0,0,1-.7,2.7A1.9,1.9,0,0,1,5,35a1.9,1.9,0,0,1,.7-2.7Z" fill="#f6602b"/>
            <path id="Tracé_62" data-name="Tracé 62" d="M15,39.6h0a1.9,1.9,0,0,1,.7,2.7,2,2,0,0,1-2.7.8,2.1,2.1,0,0,1-.7-2.8,1.9,1.9,0,0,1,2.7-.7Z" fill="#f6602b"/>
        </g>
    </g>
</svg>
