<svg id="Layer_2" data-name="Layer 2" xmlns="http://www.w3.org/2000/svg" width="48" height="48" viewBox="0 0 48 48">
    <g id="invisible_box" data-name="invisible box">
        <rect id="Rectangle_25" data-name="Rectangle 25" width="48" height="48" fill="none"/>
    </g>
    <g id="icons_Q2" data-name="icons Q2">
        <path id="Tracé_35" data-name="Tracé 35" d="M41.9,33.3,36,18.4a1.9,1.9,0,0,0-2.7-1.1l-7.7,4.1a.9.9,0,0,1-1.1-.1L15.4,10.6A2,2,0,0,0,12,12V36H40a2.1,2.1,0,0,0,1.9-2.7Z" fill="#f9781d"/>
        <path id="Tracé_36" data-name="Tracé 36" d="M42,40H8V6A2,2,0,0,0,4,6V44H42a2,2,0,0,0,0-4Z" fill="#f9781d"/>
    </g>
</svg>
