<svg id="Layer_2" data-name="Layer 2" xmlns="http://www.w3.org/2000/svg" width="48" height="48" viewBox="0 0 48 48">
    <g id="invisible_box" data-name="invisible box">
        <rect id="Rectangle_31" data-name="Rectangle 31" width="48" height="48" fill="none"/>
    </g>
    <g id="icons_Q2" data-name="icons Q2">
        <g id="Groupe_19" data-name="Groupe 19">
            <path id="Tracé_54" data-name="Tracé 54" d="M44,9H4a2,2,0,0,0-2,2V37a2,2,0,0,0,2,2H44a2,2,0,0,0,2-2V11A2,2,0,0,0,44,9ZM42,35H6V13H42Z" fill="#f87122"/>
            <path id="Tracé_55" data-name="Tracé 55" d="M38,25V23a6,6,0,0,0-6-6H25V31h7a6,6,0,0,0,6-6Zm-9-4h3a2,2,0,0,1,2,2v2a2,2,0,0,1-2,2H29Z" fill="#f87122"/>
            <path id="Tracé_56" data-name="Tracé 56" d="M14,27h5v4h4V21a4,4,0,0,0-4-4H14a4,4,0,0,0-4,4V31h4Zm5-6v2H14V21Z" fill="#f87122"/>
        </g>
    </g>
</svg>
