<svg id="Layer_2" data-name="Layer 2" xmlns="http://www.w3.org/2000/svg" width="48" height="48" viewBox="0 0 48 48">
    <g id="invisible_box" data-name="invisible box">
        <rect id="Rectangle_40" data-name="Rectangle 40" width="48" height="48" fill="none"/>
    </g>
    <g id="Layer_6" data-name="Layer 6">
        <g id="Groupe_23" data-name="Groupe 23">
            <path id="Tracé_74" data-name="Tracé 74" d="M25.6,25.6,22.2,29,19,25.8l3.4-3.4a2,2,0,0,0-2.8-2.8L16.2,23l-1.3-1.3a1.9,1.9,0,0,0-2.8,0l-3,3a9.8,9.8,0,0,0-3,7,9.1,9.1,0,0,0,1.8,5.6L4.6,40.6a1.9,1.9,0,0,0,0,2.8,1.9,1.9,0,0,0,2.8,0l3.2-3.2a10.128,10.128,0,0,0,13-1l3-3a2,2,0,0,0,.6-1.4,1.7,1.7,0,0,0-.6-1.4L25,31.8l3.4-3.4a2,2,0,0,0-2.8-2.8ZM20.8,36.4a6.1,6.1,0,0,1-8.5,0l-.4-.4a6.4,6.4,0,0,1-1.8-4.3,6,6,0,0,1,1.8-4.2l1.6-1.6,8.8,8.9Z" fill="#ded1b0"/>
            <path id="Tracé_75" data-name="Tracé 75" d="M43.4,4.6a1.9,1.9,0,0,0-2.8,0L37.2,8a10,10,0,0,0-13,.9l-3,3a2,2,0,0,0-.6,1.4,1.7,1.7,0,0,0,.6,1.4L32.9,26.4a1.9,1.9,0,0,0,2.8,0l3-2.9a9.9,9.9,0,0,0,2.9-7.1A10.4,10.4,0,0,0,40,10.9l3.4-3.5a1.9,1.9,0,0,0,0-2.8Zm-7.5,16-1.6,1.6-8.9-8.9L27,11.8a5.9,5.9,0,0,1,8.5,0l.4.3a6.3,6.3,0,0,1,1.7,4.3,5.9,5.9,0,0,1-1.7,4.2Z" fill="#ded1b0"/>
        </g>
    </g>
</svg>
