<svg id="Layer_2" data-name="Layer 2" xmlns="http://www.w3.org/2000/svg" width="48" height="48" viewBox="0 0 48 48">
    <g id="invisible_box" data-name="invisible box">
        <rect id="Rectangle_38" data-name="Rectangle 38" width="48" height="48" fill="none"/>
    </g>
    <g id="icons_Q2" data-name="icons Q2">
        <path id="Tracé_70" data-name="Tracé 70" d="M39.2,10.3l-.4,20-30-.6.4-20,30,.6m2.1-4-34-.6A2.1,2.1,0,0,0,5.2,7.6l-.4,24a2,2,0,0,0,1.9,2.1l34,.6a2.1,2.1,0,0,0,2.1-1.9l.4-24a2,2,0,0,0-1.9-2.1Z" fill="#ded1b0"/>
        <path id="Tracé_71" data-name="Tracé 71" d="M44,42H4a2,2,0,0,1,0-4H44a2,2,0,0,1,0,4Z" fill="#ded1b0"/>
    </g>
</svg>
