<svg id="Layer_2" data-name="Layer 2" xmlns="http://www.w3.org/2000/svg" width="48" height="48" viewBox="0 0 48 48">
    <g id="invisible_box" data-name="invisible box">
        <rect id="Rectangle_33" data-name="Rectangle 33" width="48" height="48" fill="none"/>
        <rect id="Rectangle_34" data-name="Rectangle 34" width="48" height="48" fill="none"/>
        <rect id="Rectangle_35" data-name="Rectangle 35" width="48" height="48" fill="none"/>
    </g>
    <g id="icons_Q2" data-name="icons Q2">
        <g id="Groupe_22" data-name="Groupe 22">
            <path id="Tracé_64" data-name="Tracé 64" d="M45.4,23.4l-9.8-9.8a1.9,1.9,0,0,0-2.8,0L14.6,31.8a2,2,0,0,0-.6,1.4V33H4a2,2,0,0,0,0,4H14v6a2,2,0,0,0,2,2h9.8a2,2,0,0,0,1.4-.6L45.4,26.2a1.9,1.9,0,0,0,0-2.8ZM24.9,41H18V34.1L28.4,23.7l6.9,6.9ZM38.1,27.8l-6.9-6.9,3-3.1,7,7Z" fill="#fa2477"/>
            <path id="Tracé_65" data-name="Tracé 65" d="M12,19a2,2,0,0,0-4,0v6h4Z" fill="#fa2477"/>
            <path id="Tracé_66" data-name="Tracé 66" d="M34.2,9a2,2,0,0,1,1.4.6l.4.4V5a2.1,2.1,0,0,0-2-2,2,2,0,0,0-2,2v5.4l.8-.8A2,2,0,0,1,34.2,9Z" fill="#fa2477"/>
            <path id="Tracé_67" data-name="Tracé 67" d="M20,22.4V13a2.1,2.1,0,0,0-2-2,2,2,0,0,0-2,2V25h1.4Z" fill="#fa2477"/>
            <path id="Tracé_68" data-name="Tracé 68" d="M28,8a2.1,2.1,0,0,0-2-2,2,2,0,0,0-2,2V18.4l4-4Z" fill="#fa2477"/>
        </g>
    </g>
</svg>
