<svg id="Layer_2" data-name="Layer 2" xmlns="http://www.w3.org/2000/svg" width="48" height="48" viewBox="0 0 48 48">
    <g id="invisible_box" data-name="invisible box">
        <rect id="Rectangle_26" data-name="Rectangle 26" width="48" height="48" fill="none"/>
    </g>
    <g id="icons_Q2" data-name="icons Q2">
        <path id="Tracé_37" data-name="Tracé 37" d="M24,6A18,18,0,1,1,6,24,18,18,0,0,1,24,6m0-4A21.9,21.9,0,1,0,39.586,8.414,22,22,0,0,0,24,2Z" fill="#fc089b"/>
        <path id="Tracé_38" data-name="Tracé 38" d="M33.3,13.3,20,20,13.3,33.3a1.1,1.1,0,0,0,1.4,1.4L28,28l6.7-13.3a1.1,1.1,0,0,0-1.4-1.4ZM24,26a2,2,0,1,1,2-2A2,2,0,0,1,24,26Z" fill="#fc089b"/>
    </g>
</svg>
